<svg width="24" height="24" viewBox="0 0 24 24" fill="none" xmlns="http://www.w3.org/2000/svg">
<path d="M12.0018 2.5C11.5418 2.5 11.0718 2.54 10.6018 2.64C7.84178 3.17 5.64178 5.4 5.12178 8.16C4.64178 10.77 5.60178 13.17 7.34178 14.72C7.77178 15.1 8.00178 15.63 8.00178 16.19V18.5C8.00178 19.6 8.90178 20.5 10.0018 20.5H10.2818C10.6318 21.1 11.2618 21.5 12.0018 21.5C12.7418 21.5 13.3818 21.1 13.7218 20.5H14.0018C15.1018 20.5 16.0018 19.6 16.0018 18.5V16.19C16.0018 15.64 16.2218 15.1 16.6418 14.73C18.0918 13.45 19.0018 11.58 19.0018 9.5C19.0018 5.63 15.8718 2.5 12.0018 2.5ZM14.0018 16.5H10.0018V15.5H14.0018V16.5ZM10.0018 18.5V17.5H14.0018V18.5H10.0018ZM15.3118 13.24C15.2218 13.32 15.1518 13.42 15.0718 13.5H8.92178C8.84178 13.41 8.77178 13.31 8.68178 13.23C7.36178 12.05 6.77178 10.29 7.09178 8.53C7.45178 6.59 9.05178 4.98 10.9818 4.6C11.3218 4.53 11.6618 4.5 12.0018 4.5C14.7618 4.5 17.0018 6.74 17.0018 9.5C17.0018 10.93 16.3918 12.29 15.3118 13.24Z" fill="#EAF2FB"/>
<path d="M12.5018 10.5H11.5018V13.5H12.5018V10.5Z" fill="#EAF2FB"/>
<path d="M10.3813 8.37372L9.67418 9.08082L11.7955 11.2021L12.5026 10.495L10.3813 8.37372Z" fill="#EAF2FB"/>
<path d="M11.5028 10.5052L12.2099 11.2123L14.3312 9.09098L13.6241 8.38388L11.5028 10.5052Z" fill="#EAF2FB"/>
</svg>
