<svg width="420" height="82" viewBox="0 0 420 82" fill="none" xmlns="http://www.w3.org/2000/svg">
<mask id="mask0_714_296" style="mask-type:alpha" maskUnits="userSpaceOnUse" x="0" y="0" width="420" height="82">
<mask id="path-1-inside-1_714_296" fill="white">
<path d="M379.705 0C380.08 21.7989 397.865 39.3545 419.753 39.3545C419.77 39.3545 419.787 39.3535 419.805 39.3535V41C419.787 41 419.77 41 419.753 41C397.63 41 379.695 58.9346 379.695 81.0576C379.695 81.3726 379.701 81.6867 379.708 82H39.9941C40.0014 81.6867 40.0059 81.3726 40.0059 81.0576C40.0059 58.9517 22.0994 41.0277 0 41V39.3535C21.8648 39.326 39.6225 21.7818 39.9971 0H379.705Z"/>
</mask>
<path d="M379.705 0C380.08 21.7989 397.865 39.3545 419.753 39.3545C419.77 39.3545 419.787 39.3535 419.805 39.3535V41C419.787 41 419.77 41 419.753 41C397.63 41 379.695 58.9346 379.695 81.0576C379.695 81.3726 379.701 81.6867 379.708 82H39.9941C40.0014 81.6867 40.0059 81.3726 40.0059 81.0576C40.0059 58.9517 22.0994 41.0277 0 41V39.3535C21.8648 39.326 39.6225 21.7818 39.9971 0H379.705Z" fill="#E0E0E0"/>
<path d="M379.705 0L381.705 -0.0343906L381.671 -2H379.705V0ZM419.753 39.3545V41.3545V39.3545ZM419.805 39.3535H421.805V37.351L419.802 37.3535L419.805 39.3535ZM419.805 41L419.802 43L421.805 43.0025V41H419.805ZM419.753 41V39V41ZM379.695 81.0576H377.695V81.0576L379.695 81.0576ZM379.708 82V84H381.755L381.707 81.9538L379.708 82ZM39.9941 82L37.9947 81.9538L37.9474 84H39.9941V82ZM40.0059 81.0576L42.0059 81.0576V81.0576H40.0059ZM0 41H-2V42.9975L-0.00251067 43L0 41ZM0 39.3535L-0.00251338 37.3535L-2 37.356V39.3535H0ZM39.9971 0V-2H38.0312L37.9974 -0.03439L39.9971 0ZM379.705 0L377.705 0.0343906C378.099 22.9222 396.771 41.3545 419.753 41.3545V39.3545V37.3545C398.958 37.3545 382.061 20.6756 381.705 -0.0343906L379.705 0ZM419.753 39.3545V41.3545C419.775 41.3545 419.794 41.3542 419.808 41.3539C419.82 41.3536 419.831 41.3533 419.835 41.3532C419.84 41.3531 419.838 41.3531 419.835 41.3532C419.83 41.3533 419.821 41.3535 419.807 41.3535L419.805 39.3535L419.802 37.3535C419.78 37.3535 419.762 37.3539 419.749 37.3541C419.737 37.3544 419.726 37.3547 419.723 37.3548C419.718 37.3549 419.72 37.3549 419.724 37.3548C419.729 37.3547 419.739 37.3545 419.753 37.3545V39.3545ZM419.805 39.3535H417.805V41H419.805H421.805V39.3535H419.805ZM419.805 41L419.807 39C419.788 39 419.767 39 419.753 39V41V43C419.774 43 419.786 43 419.802 43L419.805 41ZM419.753 41V39C396.525 39 377.695 57.83 377.695 81.0576H379.695H381.695C381.695 60.0392 398.734 43 419.753 43V41ZM379.695 81.0576L377.695 81.0576C377.695 81.3948 377.701 81.7262 377.709 82.0462L379.708 82L381.707 81.9538C381.7 81.6473 381.695 81.3505 381.695 81.0576L379.695 81.0576ZM379.708 82V80H39.9941V82V84H379.708V82ZM39.9941 82L41.9936 82.0462C42.0011 81.7213 42.0059 81.3914 42.0059 81.0576L40.0059 81.0576L38.0059 81.0576C38.0059 81.3538 38.0016 81.6522 37.9947 81.9538L39.9941 82ZM40.0059 81.0576H42.0059C42.0059 57.848 23.2054 39.0291 0.00251067 39L0 41L-0.00251067 43C20.9934 43.0264 38.0059 60.0554 38.0059 81.0576H40.0059ZM0 41H2V39.3535H0H-2V41H0ZM0 39.3535L0.00251338 41.3535C22.9593 41.3247 41.6035 22.9044 41.9968 0.03439L39.9971 0L37.9974 -0.03439C37.6415 20.6593 20.7702 37.3274 -0.00251338 37.3535L0 39.3535ZM39.9971 0V2H379.705V0V-2H39.9971V0Z" fill="#E6AA27" mask="url(#path-1-inside-1_714_296)"/>
</mask>
<g mask="url(#mask0_714_296)">
<rect width="419.804" height="82" fill="#E6AA27" fill-opacity="0.25"/>
<path d="M93.7762 35.7891H92.8777L92.1746 33.6016C92.1485 33.5234 92.1225 33.4323 92.0965 33.3281C91.3152 30.8281 89.8959 29.5781 87.8387 29.5781H82.2918V39.3438H90.1433V40.4766H82.2918V50.9844H87.8387C88.1512 50.9844 88.4506 50.9583 88.7371 50.9062C90.3256 50.5938 91.4715 49.2786 92.1746 46.9609L92.8777 44.7734H93.7762L93.6199 52H74.9871V50.9844H78.1121V29.5781H74.9871V28.5625H93.6199L93.7762 35.7891ZM113.425 29.5781V28.5625H121.393V29.5781H118.268V51.8047L116.276 52.1953L101.081 33.6406V50.9844H103.346C103.841 51.0365 104.193 51.375 104.401 52H96.3543V50.9844H99.4793V29.5781H96.3543V28.5625H102.253L116.667 46.1406V29.5781H113.425ZM138.542 52H126.901V50.9844H130.612V29.5781H129.089C126.979 29.6042 125.534 30.9323 124.753 33.5625L123.893 36.5312H122.761L122.917 28.5625H142.604L142.8 36.5312H141.667L140.807 33.5625C140.052 30.9323 138.594 29.6042 136.432 29.5781H134.792V50.9844H137.487C137.982 51.0365 138.333 51.375 138.542 52ZM163.893 35.7891H162.995L162.292 33.6016C162.266 33.5234 162.24 33.4323 162.214 33.3281C161.432 30.8281 160.013 29.5781 157.956 29.5781H152.409V39.3438H160.261V40.4766H152.409V50.9844H157.956C158.268 50.9844 158.568 50.9583 158.854 50.9062C160.443 50.5938 161.589 49.2786 162.292 46.9609L162.995 44.7734H163.893L163.737 52H145.104V50.9844H148.229V29.5781H145.104V28.5625H163.737L163.893 35.7891ZM177.448 52H167.018V50.9844H170.143V29.5781H167.018V28.5625H179.167C181.224 28.5625 182.969 29.0443 184.401 30.0078C186.094 31.1797 186.94 32.7292 186.94 34.6562C186.94 35.3594 186.823 36.0495 186.589 36.7266C185.807 38.8099 184.089 40.1901 181.432 40.8672L187.643 50.9844H188.737C188.893 50.9844 189.037 50.9974 189.167 51.0234C189.531 51.0755 189.714 51.401 189.714 52H183.425L177.331 41.2578H174.323V50.9844H177.448V52ZM177.526 29.5781H174.323V40.125H177.721C178.763 40.125 179.675 39.8255 180.456 39.2266C181.732 38.2109 182.37 36.7266 182.37 34.7734C182.37 33.9661 182.227 33.1979 181.94 32.4688C181.185 30.5417 179.714 29.5781 177.526 29.5781ZM224.245 52H213.815V50.9844H216.94V29.5781H213.815V28.5625H225.964C228.021 28.5625 229.766 29.0443 231.198 30.0078C232.891 31.1797 233.737 32.7292 233.737 34.6562C233.737 35.3594 233.62 36.0495 233.386 36.7266C232.604 38.8099 230.886 40.1901 228.229 40.8672L234.44 50.9844H235.534C235.69 50.9844 235.833 50.9974 235.964 51.0234C236.328 51.0755 236.511 51.401 236.511 52H230.221L224.128 41.2578H221.12V50.9844H224.245V52ZM224.323 29.5781H221.12V40.125H224.518C225.56 40.125 226.471 39.8255 227.253 39.2266C228.529 38.2109 229.167 36.7266 229.167 34.7734C229.167 33.9661 229.024 33.1979 228.737 32.4688C227.982 30.5417 226.511 29.5781 224.323 29.5781ZM256.55 35.7891H255.651L254.948 33.6016C254.922 33.5234 254.896 33.4323 254.87 33.3281C254.089 30.8281 252.669 29.5781 250.612 29.5781H245.065V39.3438H252.917V40.4766H245.065V50.9844H250.612C250.925 50.9844 251.224 50.9583 251.511 50.9062C253.099 50.5938 254.245 49.2786 254.948 46.9609L255.651 44.7734H256.55L256.393 52H237.761V50.9844H240.886V29.5781H237.761V28.5625H256.393L256.55 35.7891ZM277.917 45.7109C277.917 47.3516 277.331 48.7578 276.159 49.9297C274.466 51.5703 272.057 52.3906 268.932 52.3906C266.25 52.3906 263.919 51.7266 261.94 50.3984C261.94 50.8932 261.914 51.2578 261.862 51.4922C261.732 51.8828 261.341 52.0781 260.69 52.0781V43.9141H262.018C262.07 44.7474 262.201 45.5286 262.409 46.2578C263.268 49.6172 265.352 51.2969 268.659 51.2969C269.57 51.2969 270.417 51.1276 271.198 50.7891C272.865 50.0599 273.698 48.7839 273.698 46.9609C273.698 46.3099 273.555 45.7109 273.268 45.1641C272.669 44.0703 271.224 42.9766 268.932 41.8828C266.406 40.7109 264.948 40.0078 264.557 39.7734C262.109 38.3672 260.886 36.5703 260.886 34.3828C260.886 32.8984 261.419 31.6224 262.487 30.5547C264.05 28.9661 266.289 28.1719 269.206 28.1719C271.55 28.1719 273.711 28.6797 275.69 29.6953C275.69 29.4609 275.703 29.2526 275.729 29.0703C275.833 28.6016 276.237 28.3672 276.94 28.3672V35.2812H275.612C275.612 33.849 275.261 32.625 274.557 31.6094C273.438 30.0729 271.797 29.3047 269.636 29.3047C268.88 29.3047 268.177 29.4219 267.526 29.6562C265.938 30.2812 265.143 31.4141 265.143 33.0547C265.143 33.7057 265.287 34.2917 265.573 34.8125C266.146 35.9062 267.565 36.974 269.831 38.0156C272.357 39.1875 273.828 39.9036 274.245 40.1641C276.693 41.5964 277.917 43.4453 277.917 45.7109ZM280.104 29.5781V28.5625H290.534V29.5781H287.448V43.0156C287.448 44.5781 287.591 45.9193 287.878 47.0391C288.633 49.8516 290.495 51.2578 293.464 51.2578C297.734 51.2318 299.883 48.5104 299.909 43.0938V29.5781H296.784V28.5625H304.44V29.5781H301.315V42.8594C301.315 44.5 301.146 45.9193 300.807 47.1172C299.766 50.6328 297.044 52.3906 292.643 52.3906C286.419 52.3646 283.281 49.3307 283.229 43.2891V29.5781H280.104ZM323.815 52H305.886V50.9844H309.011V29.5781H305.886V28.5625H316.511V29.5781H313.19V50.9844H318.034C318.633 50.9844 319.18 50.8802 319.675 50.6719C320.82 50.1771 321.667 48.9401 322.214 46.9609L323.073 43.9141H324.011L323.815 52ZM341.081 52H329.44V50.9844H333.151V29.5781H331.628C329.518 29.6042 328.073 30.9323 327.292 33.5625L326.432 36.5312H325.3L325.456 28.5625H345.143L345.339 36.5312H344.206L343.346 33.5625C342.591 30.9323 341.133 29.6042 338.971 29.5781H337.331V50.9844H340.026C340.521 51.0365 340.873 51.375 341.081 52Z" fill="white"/>
</g>
<mask id="path-5-inside-2_714_296" fill="white">
<path d="M379.704 0C380.079 21.7988 397.865 39.3543 419.753 39.3545C419.77 39.3545 419.788 39.3535 419.805 39.3535V41.8916C419.787 41.8916 419.77 41.8916 419.753 41.8916C397.63 41.8916 379.695 59.8254 379.695 81.9482C379.695 81.9654 379.696 81.9829 379.696 82H40.0049C40.0049 81.9829 40.0059 81.9654 40.0059 81.9482C40.0057 59.8425 22.0993 41.9194 0 41.8916V39.3535C21.8648 39.326 39.6225 21.7818 39.9971 0H379.704Z"/>
</mask>
<path d="M379.704 0L389.703 -0.17195L389.534 -10H379.704V0ZM419.753 39.3545L419.753 49.3545H419.753L419.753 39.3545ZM419.805 39.3535H429.805V29.3336L419.785 29.3535L419.805 39.3535ZM419.805 41.8916L419.792 51.8916L429.805 51.9043V41.8916H419.805ZM419.753 41.8916V31.8916V41.8916ZM379.695 81.9482L369.695 81.9482V81.9482H379.695ZM379.696 82V92H389.709L389.696 81.9874L379.696 82ZM40.0049 82L30.0049 81.9874L29.9923 92H40.0049V82ZM40.0059 81.9482H50.0059V81.9482L40.0059 81.9482ZM0 41.8916H-10V51.879L-0.0125665 51.8916L0 41.8916ZM0 39.3535L-0.0125669 29.3535L-10 29.3661V39.3535H0ZM39.9971 0V-10H30.1676L29.9985 -0.17195L39.9971 0ZM379.704 0L369.706 0.17195C370.174 27.4157 392.399 49.3543 419.753 49.3545L419.753 39.3545L419.753 29.3545C403.331 29.3544 389.984 16.1819 389.703 -0.17195L379.704 0ZM419.753 39.3545L419.753 49.3545C419.847 49.3545 419.924 49.3532 419.972 49.3522C419.996 49.3517 420.017 49.3512 420.03 49.3509C420.043 49.3505 420.054 49.3502 420.056 49.3502C420.06 49.3501 420.055 49.3502 420.048 49.3504C420.041 49.3506 420.026 49.351 420.008 49.3514C419.971 49.3521 419.906 49.3533 419.825 49.3535L419.805 39.3535L419.785 29.3535C419.739 29.3536 419.698 29.354 419.663 29.3545C419.629 29.3549 419.599 29.3555 419.576 29.356C419.553 29.3565 419.534 29.357 419.522 29.3573C419.516 29.3575 419.511 29.3576 419.508 29.3577C419.505 29.3578 419.502 29.3578 419.502 29.3579C419.499 29.3579 419.506 29.3577 419.514 29.3575C419.524 29.3573 419.54 29.3569 419.56 29.3565C419.58 29.356 419.607 29.3556 419.639 29.3552C419.671 29.3548 419.709 29.3545 419.753 29.3545L419.753 39.3545ZM419.805 39.3535H409.805V41.8916H419.805H429.805V39.3535H419.805ZM419.805 41.8916L419.817 31.8916C419.801 31.8916 419.786 31.8916 419.776 31.8916C419.763 31.8916 419.76 31.8916 419.753 31.8916V41.8916V51.8916C419.788 51.8916 419.782 51.8916 419.792 51.8916L419.805 41.8916ZM419.753 41.8916V31.8916C392.107 31.8916 369.696 54.3023 369.695 81.9482L379.695 81.9482L389.695 81.9483C389.695 65.3485 403.153 51.8916 419.753 51.8916V41.8916ZM379.695 81.9482H369.695C369.695 82.0432 369.697 82.1208 369.698 82.1693C369.698 82.1941 369.699 82.2146 369.699 82.2281C369.699 82.2407 369.7 82.2516 369.7 82.253C369.7 82.2572 369.7 82.2512 369.699 82.2442C369.699 82.2361 369.699 82.2209 369.698 82.2015C369.698 82.1638 369.696 82.0968 369.696 82.0126L379.696 82L389.696 81.9874C389.696 81.9402 389.696 81.8981 389.695 81.8626C389.695 81.8272 389.694 81.7966 389.694 81.7727C389.693 81.749 389.693 81.7294 389.693 81.717C389.692 81.7107 389.692 81.7054 389.692 81.7019C389.692 81.6987 389.692 81.6956 389.692 81.6952C389.692 81.6923 389.692 81.6989 389.692 81.7072C389.692 81.7163 389.693 81.7325 389.693 81.753C389.694 81.7737 389.694 81.801 389.695 81.8332C389.695 81.8654 389.695 81.9042 389.695 81.9482H379.695ZM379.696 82V72H40.0049V82V92H379.696V82ZM40.0049 82L50.0049 82.0126C50.0048 82.0968 50.0036 82.1638 50.0027 82.2015C50.0023 82.2209 50.0019 82.2361 50.0017 82.2442C50.0015 82.2512 50.0014 82.2572 50.0015 82.253C50.0015 82.2516 50.0018 82.2407 50.0022 82.2281C50.0025 82.2146 50.003 82.1941 50.0035 82.1693C50.0046 82.1208 50.0059 82.0432 50.0059 81.9482H40.0059H30.0059C30.0059 81.9042 30.0062 81.8654 30.0066 81.8332C30.0069 81.801 30.0074 81.7737 30.0079 81.753C30.0083 81.7325 30.0087 81.7163 30.0089 81.7072C30.0092 81.6989 30.0093 81.6923 30.0093 81.6952C30.0093 81.6956 30.0092 81.6987 30.0091 81.7019C30.009 81.7054 30.0088 81.7107 30.0087 81.717C30.0083 81.7294 30.0079 81.749 30.0073 81.7727C30.0068 81.7966 30.0063 81.8272 30.0058 81.8626C30.0053 81.8981 30.0049 81.9402 30.0049 81.9874L40.0049 82ZM40.0059 81.9482L50.0059 81.9482C50.0056 54.3237 27.629 31.9263 0.0125665 31.8916L0 41.8916L-0.0125665 51.8916C16.5696 51.9124 30.0057 65.3613 30.0059 81.9483L40.0059 81.9482ZM0 41.8916H10V39.3535H0H-10V41.8916H0ZM0 39.3535L0.0125669 49.3535C27.3375 49.3192 49.5274 27.3947 49.9956 0.17195L39.9971 0L29.9985 -0.17195C29.7175 16.169 16.3921 29.3329 -0.0125669 29.3535L0 39.3535ZM39.9971 0V10H379.704V0V-10H39.9971V0Z" fill="black" mask="url(#path-5-inside-2_714_296)"/>
<mask id="path-7-inside-3_714_296" fill="white">
<path d="M379.705 0C380.08 21.7989 397.865 39.3545 419.753 39.3545C419.77 39.3545 419.787 39.3535 419.805 39.3535V41C419.787 41 419.77 41 419.753 41C397.63 41 379.695 58.9346 379.695 81.0576C379.695 81.3726 379.701 81.6867 379.708 82H40.8848C40.892 81.6867 40.8975 81.3726 40.8975 81.0576C40.8975 58.9346 22.9629 41 0.839844 41C0.559205 41 0.279263 41.004 0 41.0098V39.3438C0.279272 39.3495 0.559196 39.3545 0.839844 39.3545C22.7282 39.3545 40.5128 21.7989 40.8877 0H379.705Z"/>
</mask>
<path d="M379.705 0L381.705 -0.0343906L381.671 -2H379.705V0ZM419.753 39.3545V41.3545V39.3545ZM419.805 39.3535H421.805V37.351L419.802 37.3535L419.805 39.3535ZM419.805 41L419.802 43L421.805 43.0025V41H419.805ZM419.753 41V39V41ZM379.695 81.0576H377.695V81.0576L379.695 81.0576ZM379.708 82V84H381.755L381.707 81.9538L379.708 82ZM40.8848 82L38.8853 81.9538L38.838 84H40.8848V82ZM40.8975 81.0576L42.8975 81.0576V81.0576H40.8975ZM0.839844 41V39H0.83984L0.839844 41ZM0 41.0098H-2V43.0513L0.0411311 43.0093L0 41.0098ZM0 39.3438L0.0411298 37.3442L-2 37.3022V39.3438H0ZM0.839844 39.3545L0.839842 41.3545H0.839844V39.3545ZM40.8877 0V-2H38.9218L38.888 -0.0343906L40.8877 0ZM379.705 0L377.705 0.0343906C378.099 22.9222 396.771 41.3545 419.753 41.3545V39.3545V37.3545C398.958 37.3545 382.061 20.6756 381.705 -0.0343906L379.705 0ZM419.753 39.3545V41.3545C419.775 41.3545 419.794 41.3542 419.808 41.3539C419.82 41.3536 419.831 41.3533 419.835 41.3532C419.84 41.3531 419.838 41.3531 419.835 41.3532C419.83 41.3533 419.821 41.3535 419.807 41.3535L419.805 39.3535L419.802 37.3535C419.78 37.3535 419.762 37.3539 419.749 37.3541C419.737 37.3544 419.726 37.3547 419.723 37.3548C419.718 37.3549 419.72 37.3549 419.724 37.3548C419.729 37.3547 419.739 37.3545 419.753 37.3545V39.3545ZM419.805 39.3535H417.805V41H419.805H421.805V39.3535H419.805ZM419.805 41L419.807 39C419.788 39 419.767 39 419.753 39V41V43C419.774 43 419.786 43 419.802 43L419.805 41ZM419.753 41V39C396.525 39 377.695 57.83 377.695 81.0576H379.695H381.695C381.695 60.0392 398.734 43 419.753 43V41ZM379.695 81.0576L377.695 81.0576C377.695 81.3948 377.701 81.7262 377.709 82.0462L379.708 82L381.707 81.9538C381.7 81.6473 381.695 81.3505 381.695 81.0576L379.695 81.0576ZM379.708 82V80H40.8848V82V84H379.708V82ZM40.8848 82L42.8842 82.0462C42.8916 81.7262 42.8975 81.3948 42.8975 81.0576L40.8975 81.0576L38.8975 81.0576C38.8975 81.3505 38.8924 81.6472 38.8853 81.9538L40.8848 82ZM40.8975 81.0576H42.8975C42.8975 57.83 24.0674 39 0.839844 39V41V43C21.8583 43 38.8975 60.0392 38.8975 81.0576H40.8975ZM0.839844 41L0.83984 39C0.540619 39 0.245904 39.0043 -0.0411311 39.0102L0 41.0098L0.0411311 43.0093C0.312622 43.0038 0.57779 43 0.839848 43L0.839844 41ZM0 41.0098H2V39.3438H0H-2V41.0098H0ZM0 39.3438L-0.0411298 41.3433C0.239948 41.3491 0.53727 41.3545 0.839842 41.3545L0.839844 39.3545L0.839845 37.3545C0.581122 37.3545 0.318595 37.3499 0.0411298 37.3442L0 39.3438ZM0.839844 39.3545V41.3545C23.8215 41.3545 42.4938 22.9222 42.8874 0.0343906L40.8877 0L38.888 -0.0343906C38.5318 20.6756 21.635 37.3545 0.839844 37.3545V39.3545ZM40.8877 0V2H379.705V0V-2H40.8877V0Z" fill="#E6AA27" mask="url(#path-7-inside-3_714_296)"/>
</svg>
