<svg width="420" height="82" viewBox="0 0 420 82" fill="none" xmlns="http://www.w3.org/2000/svg">
<mask id="mask0_844_358" style="mask-type:alpha" maskUnits="userSpaceOnUse" x="0" y="0" width="420" height="82">
<mask id="path-1-inside-1_844_358" fill="white">
<path d="M379.705 0C380.08 21.7989 397.865 39.3545 419.753 39.3545C419.77 39.3545 419.787 39.3535 419.805 39.3535V41C419.787 41 419.77 41 419.753 41C397.63 41 379.695 58.9346 379.695 81.0576C379.695 81.3726 379.701 81.6867 379.708 82H39.9941C40.0014 81.6867 40.0059 81.3726 40.0059 81.0576C40.0059 58.9517 22.0994 41.0277 0 41V39.3535C21.8648 39.326 39.6225 21.7818 39.9971 0H379.705Z"/>
</mask>
<path d="M379.705 0C380.08 21.7989 397.865 39.3545 419.753 39.3545C419.77 39.3545 419.787 39.3535 419.805 39.3535V41C419.787 41 419.77 41 419.753 41C397.63 41 379.695 58.9346 379.695 81.0576C379.695 81.3726 379.701 81.6867 379.708 82H39.9941C40.0014 81.6867 40.0059 81.3726 40.0059 81.0576C40.0059 58.9517 22.0994 41.0277 0 41V39.3535C21.8648 39.326 39.6225 21.7818 39.9971 0H379.705Z" fill="#E0E0E0"/>
<path d="M379.705 0L381.705 -0.0343906L381.671 -2H379.705V0ZM419.753 39.3545V41.3545V39.3545ZM419.805 39.3535H421.805V37.351L419.802 37.3535L419.805 39.3535ZM419.805 41L419.802 43L421.805 43.0025V41H419.805ZM419.753 41V39V41ZM379.695 81.0576H377.695V81.0576L379.695 81.0576ZM379.708 82V84H381.755L381.707 81.9538L379.708 82ZM39.9941 82L37.9947 81.9538L37.9474 84H39.9941V82ZM40.0059 81.0576L42.0059 81.0576V81.0576H40.0059ZM0 41H-2V42.9975L-0.00251067 43L0 41ZM0 39.3535L-0.00251338 37.3535L-2 37.356V39.3535H0ZM39.9971 0V-2H38.0312L37.9974 -0.03439L39.9971 0ZM379.705 0L377.705 0.0343906C378.099 22.9222 396.771 41.3545 419.753 41.3545V39.3545V37.3545C398.958 37.3545 382.061 20.6756 381.705 -0.0343906L379.705 0ZM419.753 39.3545V41.3545C419.775 41.3545 419.794 41.3542 419.808 41.3539C419.82 41.3536 419.831 41.3533 419.835 41.3532C419.84 41.3531 419.838 41.3531 419.835 41.3532C419.83 41.3533 419.821 41.3535 419.807 41.3535L419.805 39.3535L419.802 37.3535C419.78 37.3535 419.762 37.3539 419.749 37.3541C419.737 37.3544 419.726 37.3547 419.723 37.3548C419.718 37.3549 419.72 37.3549 419.724 37.3548C419.729 37.3547 419.739 37.3545 419.753 37.3545V39.3545ZM419.805 39.3535H417.805V41H419.805H421.805V39.3535H419.805ZM419.805 41L419.807 39C419.788 39 419.767 39 419.753 39V41V43C419.774 43 419.786 43 419.802 43L419.805 41ZM419.753 41V39C396.525 39 377.695 57.83 377.695 81.0576H379.695H381.695C381.695 60.0392 398.734 43 419.753 43V41ZM379.695 81.0576L377.695 81.0576C377.695 81.3948 377.701 81.7262 377.709 82.0462L379.708 82L381.707 81.9538C381.7 81.6473 381.695 81.3505 381.695 81.0576L379.695 81.0576ZM379.708 82V80H39.9941V82V84H379.708V82ZM39.9941 82L41.9936 82.0462C42.0011 81.7213 42.0059 81.3914 42.0059 81.0576L40.0059 81.0576L38.0059 81.0576C38.0059 81.3538 38.0016 81.6522 37.9947 81.9538L39.9941 82ZM40.0059 81.0576H42.0059C42.0059 57.848 23.2054 39.0291 0.00251067 39L0 41L-0.00251067 43C20.9934 43.0264 38.0059 60.0554 38.0059 81.0576H40.0059ZM0 41H2V39.3535H0H-2V41H0ZM0 39.3535L0.00251338 41.3535C22.9593 41.3247 41.6035 22.9044 41.9968 0.03439L39.9971 0L37.9974 -0.03439C37.6415 20.6593 20.7702 37.3274 -0.00251338 37.3535L0 39.3535ZM39.9971 0V2H379.705V0V-2H39.9971V0Z" fill="#E6AA27" mask="url(#path-1-inside-1_844_358)"/>
</mask>
<g mask="url(#mask0_844_358)">
<rect width="419.804" height="82" fill="#E6AA27" fill-opacity="0.25"/>
<path d="M64.8504 35.7891H63.9519L63.2488 33.6016C63.2228 33.5234 63.1967 33.4323 63.1707 33.3281C62.3894 30.8281 60.9702 29.5781 58.9129 29.5781H53.366V39.3438H61.2176V40.4766H53.366V50.9844H58.9129C59.2254 50.9844 59.5249 50.9583 59.8113 50.9062C61.3999 50.5938 62.5457 49.2786 63.2488 46.9609L63.9519 44.7734H64.8504L64.6941 52H46.0613V50.9844H49.1863V29.5781H46.0613V28.5625H64.6941L64.8504 35.7891ZM84.4988 29.5781V28.5625H92.4676V29.5781H89.3426V51.8047L87.3504 52.1953L72.1551 33.6406V50.9844H74.4207C74.9155 51.0365 75.267 51.375 75.4754 52H67.4285V50.9844H70.5535V29.5781H67.4285V28.5625H73.3269L87.741 46.1406V29.5781H84.4988ZM109.616 52H97.9754V50.9844H101.686V29.5781H100.163C98.0535 29.6042 96.6082 30.9323 95.8269 33.5625L94.9676 36.5312H93.8347L93.991 28.5625H113.678L113.874 36.5312H112.741L111.882 33.5625C111.126 30.9323 109.668 29.6042 107.507 29.5781H105.866V50.9844H108.561C109.056 51.0365 109.408 51.375 109.616 52ZM134.968 35.7891H134.069L133.366 33.6016C133.34 33.5234 133.314 33.4323 133.288 33.3281C132.507 30.8281 131.087 29.5781 129.03 29.5781H123.483V39.3438H131.335V40.4766H123.483V50.9844H129.03C129.343 50.9844 129.642 50.9583 129.928 50.9062C131.517 50.5938 132.663 49.2786 133.366 46.9609L134.069 44.7734H134.968L134.811 52H116.178V50.9844H119.303V29.5781H116.178V28.5625H134.811L134.968 35.7891ZM148.522 52H138.093V50.9844H141.218V29.5781H138.093V28.5625H150.241C152.298 28.5625 154.043 29.0443 155.475 30.0078C157.168 31.1797 158.014 32.7292 158.014 34.6562C158.014 35.3594 157.897 36.0495 157.663 36.7266C156.882 38.8099 155.163 40.1901 152.507 40.8672L158.718 50.9844H159.811C159.968 50.9844 160.111 50.9974 160.241 51.0234C160.606 51.0755 160.788 51.401 160.788 52H154.499L148.405 41.2578H145.397V50.9844H148.522V52ZM148.6 29.5781H145.397V40.125H148.796C149.837 40.125 150.749 39.8255 151.53 39.2266C152.806 38.2109 153.444 36.7266 153.444 34.7734C153.444 33.9661 153.301 33.1979 153.014 32.4688C152.259 30.5417 150.788 29.5781 148.6 29.5781ZM180.085 52H169.655V50.9844H172.78V29.5781H169.655V28.5625H180.085V29.5781H176.96V39.3438H188.132V29.5781H185.007V28.5625H195.475V29.5781H192.311V50.9844H194.421C194.915 51.0365 195.267 51.375 195.475 52H185.007V50.9844H188.132V40.4766H176.96V50.9844H179.069C179.199 50.9844 179.33 50.9974 179.46 51.0234C179.876 51.1016 180.085 51.4271 180.085 52ZM221.218 52H211.96V50.9844H214.577L211.647 43.4062H203.639L200.749 50.9844H202.78C202.936 50.9844 203.093 50.9974 203.249 51.0234C203.587 51.1016 203.757 51.4271 203.757 52H196.725V50.9844H199.186L207.858 28.5625H209.928L218.991 50.9844H220.241C220.371 50.9844 220.501 50.9974 220.632 51.0234C221.022 51.0755 221.218 51.401 221.218 52ZM211.178 42.2734L207.624 33.0156L204.069 42.2734H211.178ZM232.897 52H222.468V50.9844H225.593V29.5781H222.468V28.5625H234.616C236.673 28.5625 238.418 29.0443 239.85 30.0078C241.543 31.1797 242.389 32.7292 242.389 34.6562C242.389 35.3594 242.272 36.0495 242.038 36.7266C241.257 38.8099 239.538 40.1901 236.882 40.8672L243.093 50.9844H244.186C244.343 50.9844 244.486 50.9974 244.616 51.0234C244.981 51.0755 245.163 51.401 245.163 52H238.874L232.78 41.2578H229.772V50.9844H232.897V52ZM232.975 29.5781H229.772V40.125H233.171C234.212 40.125 235.124 39.8255 235.905 39.2266C237.181 38.2109 237.819 36.7266 237.819 34.7734C237.819 33.9661 237.676 33.1979 237.389 32.4688C236.634 30.5417 235.163 29.5781 232.975 29.5781ZM246.413 28.5625H257.546C260.306 28.5625 262.728 29.2266 264.811 30.5547C268.093 32.638 269.733 35.8932 269.733 40.3203C269.733 43.7578 268.6 46.5573 266.335 48.7188C264.017 50.9062 261.087 52 257.546 52H246.413V50.9844H249.538V29.5781H246.413V28.5625ZM257.546 29.5781H253.718V50.9844H257.585C262.35 50.8542 264.824 47.2344 265.007 40.125C265.007 38.0677 264.811 36.3229 264.421 34.8906C263.457 31.349 261.165 29.5781 257.546 29.5781ZM295.397 52H294.889C294.577 52 294.317 51.9479 294.108 51.8438C293.744 51.6354 293.301 50.8151 292.78 49.3828L288.561 37.9375L283.444 52.1172H282.975C282.689 52.1172 282.442 52.0651 282.233 51.9609C281.79 51.7526 281.296 50.8932 280.749 49.3828L273.444 29.5781H271.257V28.5625H280.671V29.5781H277.507L283.952 47.4297L287.936 36.1797L285.124 28.5625H292.78V29.5781H289.655L295.827 47.3125L301.725 29.5781H298.6V28.5625H304.968V29.5781H303.014L295.397 52ZM329.46 52H320.202V50.9844H322.819L319.889 43.4062H311.882L308.991 50.9844H311.022C311.178 50.9844 311.335 50.9974 311.491 51.0234C311.83 51.1016 311.999 51.4271 311.999 52H304.968V50.9844H307.428L316.1 28.5625H318.171L327.233 50.9844H328.483C328.613 50.9844 328.744 50.9974 328.874 51.0234C329.264 51.0755 329.46 51.401 329.46 52ZM319.421 42.2734L315.866 33.0156L312.311 42.2734H319.421ZM341.139 52H330.71V50.9844H333.835V29.5781H330.71V28.5625H342.858C344.915 28.5625 346.66 29.0443 348.093 30.0078C349.785 31.1797 350.632 32.7292 350.632 34.6562C350.632 35.3594 350.514 36.0495 350.28 36.7266C349.499 38.8099 347.78 40.1901 345.124 40.8672L351.335 50.9844H352.428C352.585 50.9844 352.728 50.9974 352.858 51.0234C353.223 51.0755 353.405 51.401 353.405 52H347.116L341.022 41.2578H338.014V50.9844H341.139V52ZM341.218 29.5781H338.014V40.125H341.413C342.455 40.125 343.366 39.8255 344.147 39.2266C345.423 38.2109 346.061 36.7266 346.061 34.7734C346.061 33.9661 345.918 33.1979 345.632 32.4688C344.876 30.5417 343.405 29.5781 341.218 29.5781ZM373.444 35.7891H372.546L371.843 33.6016C371.817 33.5234 371.79 33.4323 371.764 33.3281C370.983 30.8281 369.564 29.5781 367.507 29.5781H361.96V39.3438H369.811V40.4766H361.96V50.9844H367.507C367.819 50.9844 368.119 50.9583 368.405 50.9062C369.994 50.5938 371.139 49.2786 371.843 46.9609L372.546 44.7734H373.444L373.288 52H354.655V50.9844H357.78V29.5781H354.655V28.5625H373.288L373.444 35.7891Z" fill="white"/>
</g>
<mask id="path-5-inside-2_844_358" fill="white">
<path d="M379.704 0C380.079 21.7988 397.865 39.3543 419.753 39.3545C419.77 39.3545 419.788 39.3535 419.805 39.3535V41.8916C419.787 41.8916 419.77 41.8916 419.753 41.8916C397.63 41.8916 379.695 59.8254 379.695 81.9482C379.695 81.9654 379.696 81.9829 379.696 82H40.0049C40.0049 81.9829 40.0059 81.9654 40.0059 81.9482C40.0057 59.8425 22.0993 41.9194 0 41.8916V39.3535C21.8648 39.326 39.6225 21.7818 39.9971 0H379.704Z"/>
</mask>
<path d="M379.704 0L389.703 -0.17195L389.534 -10H379.704V0ZM419.753 39.3545L419.753 49.3545H419.753L419.753 39.3545ZM419.805 39.3535H429.805V29.3336L419.785 29.3535L419.805 39.3535ZM419.805 41.8916L419.792 51.8916L429.805 51.9043V41.8916H419.805ZM419.753 41.8916V31.8916V41.8916ZM379.695 81.9482L369.695 81.9482V81.9482H379.695ZM379.696 82V92H389.709L389.696 81.9874L379.696 82ZM40.0049 82L30.0049 81.9874L29.9923 92H40.0049V82ZM40.0059 81.9482H50.0059V81.9482L40.0059 81.9482ZM0 41.8916H-10V51.879L-0.0125665 51.8916L0 41.8916ZM0 39.3535L-0.0125669 29.3535L-10 29.3661V39.3535H0ZM39.9971 0V-10H30.1676L29.9985 -0.17195L39.9971 0ZM379.704 0L369.706 0.17195C370.174 27.4157 392.399 49.3543 419.753 49.3545L419.753 39.3545L419.753 29.3545C403.331 29.3544 389.984 16.1819 389.703 -0.17195L379.704 0ZM419.753 39.3545L419.753 49.3545C419.847 49.3545 419.924 49.3532 419.972 49.3522C419.996 49.3517 420.017 49.3512 420.03 49.3509C420.043 49.3505 420.054 49.3502 420.056 49.3502C420.06 49.3501 420.055 49.3502 420.048 49.3504C420.041 49.3506 420.026 49.351 420.008 49.3514C419.971 49.3521 419.906 49.3533 419.825 49.3535L419.805 39.3535L419.785 29.3535C419.739 29.3536 419.698 29.354 419.663 29.3545C419.629 29.3549 419.599 29.3555 419.576 29.356C419.553 29.3565 419.534 29.357 419.522 29.3573C419.516 29.3575 419.511 29.3576 419.508 29.3577C419.505 29.3578 419.502 29.3578 419.502 29.3579C419.499 29.3579 419.506 29.3577 419.514 29.3575C419.524 29.3573 419.54 29.3569 419.56 29.3565C419.58 29.356 419.607 29.3556 419.639 29.3552C419.671 29.3548 419.709 29.3545 419.753 29.3545L419.753 39.3545ZM419.805 39.3535H409.805V41.8916H419.805H429.805V39.3535H419.805ZM419.805 41.8916L419.817 31.8916C419.801 31.8916 419.786 31.8916 419.776 31.8916C419.763 31.8916 419.76 31.8916 419.753 31.8916V41.8916V51.8916C419.788 51.8916 419.782 51.8916 419.792 51.8916L419.805 41.8916ZM419.753 41.8916V31.8916C392.107 31.8916 369.696 54.3023 369.695 81.9482L379.695 81.9482L389.695 81.9483C389.695 65.3485 403.153 51.8916 419.753 51.8916V41.8916ZM379.695 81.9482H369.695C369.695 82.0432 369.697 82.1208 369.698 82.1693C369.698 82.1941 369.699 82.2146 369.699 82.2281C369.699 82.2407 369.7 82.2516 369.7 82.253C369.7 82.2572 369.7 82.2512 369.699 82.2442C369.699 82.2361 369.699 82.2209 369.698 82.2015C369.698 82.1638 369.696 82.0968 369.696 82.0126L379.696 82L389.696 81.9874C389.696 81.9402 389.696 81.8981 389.695 81.8626C389.695 81.8272 389.694 81.7966 389.694 81.7727C389.693 81.749 389.693 81.7294 389.693 81.717C389.692 81.7107 389.692 81.7054 389.692 81.7019C389.692 81.6987 389.692 81.6956 389.692 81.6952C389.692 81.6923 389.692 81.6989 389.692 81.7072C389.692 81.7163 389.693 81.7325 389.693 81.753C389.694 81.7737 389.694 81.801 389.695 81.8332C389.695 81.8654 389.695 81.9042 389.695 81.9482H379.695ZM379.696 82V72H40.0049V82V92H379.696V82ZM40.0049 82L50.0049 82.0126C50.0048 82.0968 50.0036 82.1638 50.0027 82.2015C50.0023 82.2209 50.0019 82.2361 50.0017 82.2442C50.0015 82.2512 50.0014 82.2572 50.0015 82.253C50.0015 82.2516 50.0018 82.2407 50.0022 82.2281C50.0025 82.2146 50.003 82.1941 50.0035 82.1693C50.0046 82.1208 50.0059 82.0432 50.0059 81.9482H40.0059H30.0059C30.0059 81.9042 30.0062 81.8654 30.0066 81.8332C30.0069 81.801 30.0074 81.7737 30.0079 81.753C30.0083 81.7325 30.0087 81.7163 30.0089 81.7072C30.0092 81.6989 30.0093 81.6923 30.0093 81.6952C30.0093 81.6956 30.0092 81.6987 30.0091 81.7019C30.009 81.7054 30.0088 81.7107 30.0087 81.717C30.0083 81.7294 30.0079 81.749 30.0073 81.7727C30.0068 81.7966 30.0063 81.8272 30.0058 81.8626C30.0053 81.8981 30.0049 81.9402 30.0049 81.9874L40.0049 82ZM40.0059 81.9482L50.0059 81.9482C50.0056 54.3237 27.629 31.9263 0.0125665 31.8916L0 41.8916L-0.0125665 51.8916C16.5696 51.9124 30.0057 65.3613 30.0059 81.9483L40.0059 81.9482ZM0 41.8916H10V39.3535H0H-10V41.8916H0ZM0 39.3535L0.0125669 49.3535C27.3375 49.3192 49.5274 27.3947 49.9956 0.17195L39.9971 0L29.9985 -0.17195C29.7175 16.169 16.3921 29.3329 -0.0125669 29.3535L0 39.3535ZM39.9971 0V10H379.704V0V-10H39.9971V0Z" fill="black" mask="url(#path-5-inside-2_844_358)"/>
<mask id="path-7-inside-3_844_358" fill="white">
<path d="M379.705 0C380.08 21.7989 397.865 39.3545 419.753 39.3545C419.77 39.3545 419.787 39.3535 419.805 39.3535V41C419.787 41 419.77 41 419.753 41C397.63 41 379.695 58.9346 379.695 81.0576C379.695 81.3726 379.701 81.6867 379.708 82H40.8848C40.892 81.6867 40.8975 81.3726 40.8975 81.0576C40.8975 58.9346 22.9629 41 0.839844 41C0.559205 41 0.279263 41.004 0 41.0098V39.3438C0.279272 39.3495 0.559196 39.3545 0.839844 39.3545C22.7282 39.3545 40.5128 21.7989 40.8877 0H379.705Z"/>
</mask>
<path d="M379.705 0L381.705 -0.0343906L381.671 -2H379.705V0ZM419.753 39.3545V41.3545V39.3545ZM419.805 39.3535H421.805V37.351L419.802 37.3535L419.805 39.3535ZM419.805 41L419.802 43L421.805 43.0025V41H419.805ZM419.753 41V39V41ZM379.695 81.0576H377.695V81.0576L379.695 81.0576ZM379.708 82V84H381.755L381.707 81.9538L379.708 82ZM40.8848 82L38.8853 81.9538L38.838 84H40.8848V82ZM40.8975 81.0576L42.8975 81.0576V81.0576H40.8975ZM0.839844 41V39H0.83984L0.839844 41ZM0 41.0098H-2V43.0513L0.0411311 43.0093L0 41.0098ZM0 39.3438L0.0411298 37.3442L-2 37.3022V39.3438H0ZM0.839844 39.3545L0.839842 41.3545H0.839844V39.3545ZM40.8877 0V-2H38.9218L38.888 -0.0343906L40.8877 0ZM379.705 0L377.705 0.0343906C378.099 22.9222 396.771 41.3545 419.753 41.3545V39.3545V37.3545C398.958 37.3545 382.061 20.6756 381.705 -0.0343906L379.705 0ZM419.753 39.3545V41.3545C419.775 41.3545 419.794 41.3542 419.808 41.3539C419.82 41.3536 419.831 41.3533 419.835 41.3532C419.84 41.3531 419.838 41.3531 419.835 41.3532C419.83 41.3533 419.821 41.3535 419.807 41.3535L419.805 39.3535L419.802 37.3535C419.78 37.3535 419.762 37.3539 419.749 37.3541C419.737 37.3544 419.726 37.3547 419.723 37.3548C419.718 37.3549 419.72 37.3549 419.724 37.3548C419.729 37.3547 419.739 37.3545 419.753 37.3545V39.3545ZM419.805 39.3535H417.805V41H419.805H421.805V39.3535H419.805ZM419.805 41L419.807 39C419.788 39 419.767 39 419.753 39V41V43C419.774 43 419.786 43 419.802 43L419.805 41ZM419.753 41V39C396.525 39 377.695 57.83 377.695 81.0576H379.695H381.695C381.695 60.0392 398.734 43 419.753 43V41ZM379.695 81.0576L377.695 81.0576C377.695 81.3948 377.701 81.7262 377.709 82.0462L379.708 82L381.707 81.9538C381.7 81.6473 381.695 81.3505 381.695 81.0576L379.695 81.0576ZM379.708 82V80H40.8848V82V84H379.708V82ZM40.8848 82L42.8842 82.0462C42.8916 81.7262 42.8975 81.3948 42.8975 81.0576L40.8975 81.0576L38.8975 81.0576C38.8975 81.3505 38.8924 81.6472 38.8853 81.9538L40.8848 82ZM40.8975 81.0576H42.8975C42.8975 57.83 24.0674 39 0.839844 39V41V43C21.8583 43 38.8975 60.0392 38.8975 81.0576H40.8975ZM0.839844 41L0.83984 39C0.540619 39 0.245904 39.0043 -0.0411311 39.0102L0 41.0098L0.0411311 43.0093C0.312622 43.0038 0.57779 43 0.839848 43L0.839844 41ZM0 41.0098H2V39.3438H0H-2V41.0098H0ZM0 39.3438L-0.0411298 41.3433C0.239948 41.3491 0.53727 41.3545 0.839842 41.3545L0.839844 39.3545L0.839845 37.3545C0.581122 37.3545 0.318595 37.3499 0.0411298 37.3442L0 39.3438ZM0.839844 39.3545V41.3545C23.8215 41.3545 42.4938 22.9222 42.8874 0.0343906L40.8877 0L38.888 -0.0343906C38.5318 20.6756 21.635 37.3545 0.839844 37.3545V39.3545ZM40.8877 0V2H379.705V0V-2H40.8877V0Z" fill="#E6AA27" mask="url(#path-7-inside-3_844_358)"/>
</svg>
