<svg width="420" height="82" viewBox="0 0 420 82" fill="none" xmlns="http://www.w3.org/2000/svg">
<mask id="mask0_530_564" style="mask-type:alpha" maskUnits="userSpaceOnUse" x="0" y="0" width="420" height="82">
<mask id="path-1-inside-1_530_564" fill="white">
<path d="M379.705 0C380.08 21.7989 397.865 39.3545 419.753 39.3545C419.77 39.3545 419.787 39.3535 419.805 39.3535V41C419.787 41 419.77 41 419.753 41C397.63 41 379.695 58.9346 379.695 81.0576C379.695 81.3726 379.701 81.6867 379.708 82H39.9941C40.0014 81.6867 40.0059 81.3726 40.0059 81.0576C40.0059 58.9517 22.0994 41.0277 0 41V39.3535C21.8648 39.326 39.6225 21.7818 39.9971 0H379.705Z"/>
</mask>
<path d="M379.705 0C380.08 21.7989 397.865 39.3545 419.753 39.3545C419.77 39.3545 419.787 39.3535 419.805 39.3535V41C419.787 41 419.77 41 419.753 41C397.63 41 379.695 58.9346 379.695 81.0576C379.695 81.3726 379.701 81.6867 379.708 82H39.9941C40.0014 81.6867 40.0059 81.3726 40.0059 81.0576C40.0059 58.9517 22.0994 41.0277 0 41V39.3535C21.8648 39.326 39.6225 21.7818 39.9971 0H379.705Z" fill="#E0E0E0"/>
<path d="M379.705 0L381.705 -0.0343906L381.671 -2H379.705V0ZM419.753 39.3545V41.3545V39.3545ZM419.805 39.3535H421.805V37.351L419.802 37.3535L419.805 39.3535ZM419.805 41L419.802 43L421.805 43.0025V41H419.805ZM419.753 41V39V41ZM379.695 81.0576H377.695V81.0576L379.695 81.0576ZM379.708 82V84H381.755L381.707 81.9538L379.708 82ZM39.9941 82L37.9947 81.9538L37.9474 84H39.9941V82ZM40.0059 81.0576L42.0059 81.0576V81.0576H40.0059ZM0 41H-2V42.9975L-0.00251067 43L0 41ZM0 39.3535L-0.00251338 37.3535L-2 37.356V39.3535H0ZM39.9971 0V-2H38.0312L37.9974 -0.03439L39.9971 0ZM379.705 0L377.705 0.0343906C378.099 22.9222 396.771 41.3545 419.753 41.3545V39.3545V37.3545C398.958 37.3545 382.061 20.6756 381.705 -0.0343906L379.705 0ZM419.753 39.3545V41.3545C419.775 41.3545 419.794 41.3542 419.808 41.3539C419.82 41.3536 419.831 41.3533 419.835 41.3532C419.84 41.3531 419.838 41.3531 419.835 41.3532C419.83 41.3533 419.821 41.3535 419.807 41.3535L419.805 39.3535L419.802 37.3535C419.78 37.3535 419.762 37.3539 419.749 37.3541C419.737 37.3544 419.726 37.3547 419.723 37.3548C419.718 37.3549 419.72 37.3549 419.724 37.3548C419.729 37.3547 419.739 37.3545 419.753 37.3545V39.3545ZM419.805 39.3535H417.805V41H419.805H421.805V39.3535H419.805ZM419.805 41L419.807 39C419.788 39 419.767 39 419.753 39V41V43C419.774 43 419.786 43 419.802 43L419.805 41ZM419.753 41V39C396.525 39 377.695 57.83 377.695 81.0576H379.695H381.695C381.695 60.0392 398.734 43 419.753 43V41ZM379.695 81.0576L377.695 81.0576C377.695 81.3948 377.701 81.7262 377.709 82.0462L379.708 82L381.707 81.9538C381.7 81.6473 381.695 81.3505 381.695 81.0576L379.695 81.0576ZM379.708 82V80H39.9941V82V84H379.708V82ZM39.9941 82L41.9936 82.0462C42.0011 81.7213 42.0059 81.3914 42.0059 81.0576L40.0059 81.0576L38.0059 81.0576C38.0059 81.3538 38.0016 81.6522 37.9947 81.9538L39.9941 82ZM40.0059 81.0576H42.0059C42.0059 57.848 23.2054 39.0291 0.00251067 39L0 41L-0.00251067 43C20.9934 43.0264 38.0059 60.0554 38.0059 81.0576H40.0059ZM0 41H2V39.3535H0H-2V41H0ZM0 39.3535L0.00251338 41.3535C22.9593 41.3247 41.6035 22.9044 41.9968 0.03439L39.9971 0L37.9974 -0.03439C37.6415 20.6593 20.7702 37.3274 -0.00251338 37.3535L0 39.3535ZM39.9971 0V2H379.705V0V-2H39.9971V0Z" fill="#E6AA27" mask="url(#path-1-inside-1_530_564)"/>
</mask>
<g mask="url(#mask0_530_564)">
<rect width="419.804" height="82" fill="#E6AA27" fill-opacity="0.25"/>
<mask id="mask1_530_564" style="mask-type:alpha" maskUnits="userSpaceOnUse" x="317" y="-48" width="70" height="178">
<path d="M366.041 -48C373.542 -48 380.647 -46.3099 387 -43.292C370.478 -35.4431 359.055 -18.6046 359.055 0.90332C359.055 17.2722 367.099 31.7612 379.447 40.6377C367.099 49.5142 359.055 64.0032 359.055 80.3721C359.055 99.8799 370.479 116.717 387 124.566C380.647 127.584 373.542 129.275 366.041 129.275C339.033 129.275 317.138 107.381 317.138 80.3721C317.138 64.0031 325.181 49.5142 337.53 40.6377C325.181 31.7612 317.138 17.2723 317.138 0.90332C317.138 -26.1052 339.032 -47.9999 366.041 -48Z" fill="#D9D9D9" fill-opacity="0.68"/>
</mask>
<g mask="url(#mask1_530_564)">
<rect x="300.545" y="10.5098" width="86.4545" height="61.1295" fill="#E4CD8B"/>
</g>
<mask id="mask2_530_564" style="mask-type:alpha" maskUnits="userSpaceOnUse" x="305" y="-48" width="71" height="178">
<path d="M354.688 -48C362.189 -48 369.295 -46.3099 375.647 -43.292C359.126 -35.4431 347.702 -18.6046 347.702 0.90332C347.702 17.2722 355.746 31.7612 368.095 40.6377C355.746 49.5142 347.702 64.0032 347.702 80.3721C347.702 99.8799 359.126 116.717 375.647 124.566C369.295 127.584 362.189 129.275 354.688 129.275C327.68 129.275 305.785 107.381 305.785 80.3721C305.785 64.0031 313.829 49.5142 326.178 40.6377C313.829 31.7612 305.785 17.2723 305.785 0.90332C305.785 -26.1052 327.68 -47.9998 354.688 -48Z" fill="#D9D9D9" fill-opacity="0.68"/>
</mask>
<g mask="url(#mask2_530_564)">
<rect x="289.192" y="10.5098" width="86.4545" height="61.1295" fill="#FFE69B"/>
</g>
<mask id="mask3_530_564" style="mask-type:alpha" maskUnits="userSpaceOnUse" x="294" y="-48" width="71" height="178">
<path d="M343.336 -48C350.837 -48 357.942 -46.3099 364.295 -43.292C347.773 -35.4431 336.35 -18.6046 336.35 0.90332C336.35 17.2722 344.393 31.7612 356.742 40.6377C344.393 49.5142 336.35 64.0032 336.35 80.3721C336.35 99.8799 347.774 116.717 364.295 124.566C357.942 127.584 350.837 129.275 343.336 129.275C316.327 129.275 294.433 107.381 294.433 80.3721C294.433 64.0031 302.476 49.5142 314.825 40.6377C302.476 31.7612 294.433 17.2723 294.433 0.90332C294.433 -26.1052 316.327 -47.9998 343.336 -48Z" fill="#D9D9D9"/>
</mask>
<g mask="url(#mask3_530_564)">
<rect x="277.841" y="10.5098" width="86.4545" height="61.1295" fill="#E6AA27"/>
</g>
<rect x="-7" y="10.5" width="341" height="61" fill="#E6AA27"/>
<path d="M104.069 35.7891H103.171L102.468 33.6016C102.442 33.5234 102.415 33.4323 102.389 33.3281C101.608 30.8281 100.189 29.5781 98.1316 29.5781H92.5847V39.3438H100.436V40.4766H92.5847V50.9844H98.1316C98.4441 50.9844 98.7436 50.9583 99.0301 50.9062C100.619 50.5938 101.764 49.2786 102.468 46.9609L103.171 44.7734H104.069L103.913 52H85.2801V50.9844H88.4051V29.5781H85.2801V28.5625H103.913L104.069 35.7891ZM123.718 29.5781V28.5625H131.686V29.5781H128.561V51.8047L126.569 52.1953L111.374 33.6406V50.9844H113.639C114.134 51.0365 114.486 51.375 114.694 52H106.647V50.9844H109.772V29.5781H106.647V28.5625H112.546L126.96 46.1406V29.5781H123.718ZM148.835 52H137.194V50.9844H140.905V29.5781H139.382C137.272 29.6042 135.827 30.9323 135.046 33.5625L134.186 36.5312H133.053L133.21 28.5625H152.897L153.093 36.5312H151.96L151.1 33.5625C150.345 30.9323 148.887 29.6042 146.725 29.5781H145.085V50.9844H147.78C148.275 51.0365 148.626 51.375 148.835 52ZM174.186 35.7891H173.288L172.585 33.6016C172.559 33.5234 172.533 33.4323 172.507 33.3281C171.725 30.8281 170.306 29.5781 168.249 29.5781H162.702V39.3438H170.553V40.4766H162.702V50.9844H168.249C168.561 50.9844 168.861 50.9583 169.147 50.9062C170.736 50.5938 171.882 49.2786 172.585 46.9609L173.288 44.7734H174.186L174.03 52H155.397V50.9844H158.522V29.5781H155.397V28.5625H174.03L174.186 35.7891ZM187.741 52H177.311V50.9844H180.436V29.5781H177.311V28.5625H189.46C191.517 28.5625 193.262 29.0443 194.694 30.0078C196.387 31.1797 197.233 32.7292 197.233 34.6562C197.233 35.3594 197.116 36.0495 196.882 36.7266C196.1 38.8099 194.382 40.1901 191.725 40.8672L197.936 50.9844H199.03C199.186 50.9844 199.33 50.9974 199.46 51.0234C199.824 51.0755 200.007 51.401 200.007 52H193.718L187.624 41.2578H184.616V50.9844H187.741V52ZM187.819 29.5781H184.616V40.125H188.014C189.056 40.125 189.968 39.8255 190.749 39.2266C192.025 38.2109 192.663 36.7266 192.663 34.7734C192.663 33.9661 192.52 33.1979 192.233 32.4688C191.478 30.5417 190.007 29.5781 187.819 29.5781ZM287.741 52H269.811V50.9844H272.936V29.5781H269.811V28.5625H280.436V29.5781H277.116V50.9844H281.96C282.559 50.9844 283.106 50.8802 283.6 50.6719C284.746 50.1771 285.593 48.9401 286.139 46.9609L286.999 43.9141H287.936L287.741 52ZM312.663 52H303.405V50.9844H306.022L303.093 43.4062H295.085L292.194 50.9844H294.225C294.382 50.9844 294.538 50.9974 294.694 51.0234C295.033 51.1016 295.202 51.4271 295.202 52H288.171V50.9844H290.632L299.303 28.5625H301.374L310.436 50.9844H311.686C311.817 50.9844 311.947 50.9974 312.077 51.0234C312.468 51.0755 312.663 51.401 312.663 52ZM302.624 42.2734L299.069 33.0156L295.514 42.2734H302.624ZM333.053 33.875C333.053 34.4479 332.936 35.0339 332.702 35.6328C332.025 37.3255 330.658 38.5365 328.6 39.2656C329.668 39.4219 330.632 39.7083 331.491 40.125C333.6 41.2188 334.655 42.8984 334.655 45.1641C334.655 46.4922 334.251 47.7031 333.444 48.7969C331.882 50.9323 329.382 52 325.944 52H313.913V50.9844H317.038V29.5781H313.913V28.5625H325.553C327.168 28.5625 328.574 28.7969 329.772 29.2656C331.96 30.1771 333.053 31.7135 333.053 33.875ZM324.108 29.5781H321.218V38.7578H324.186C325.046 38.7578 325.814 38.5885 326.491 38.25C327.923 37.4688 328.639 36.1146 328.639 34.1875C328.639 34.0312 328.639 33.862 328.639 33.6797C328.457 30.9453 326.947 29.5781 324.108 29.5781ZM325.046 39.8125H321.218V50.9844H324.928C326.022 50.9844 326.973 50.7109 327.78 50.1641C329.238 49.1224 329.968 47.4427 329.968 45.125C329.968 44.3177 329.837 43.5495 329.577 42.8203C328.822 40.8151 327.311 39.8125 325.046 39.8125Z" fill="black"/>
</g>
<mask id="path-12-inside-2_530_564" fill="white">
<path d="M379.704 0C380.079 21.7988 397.865 39.3543 419.753 39.3545C419.77 39.3545 419.788 39.3535 419.805 39.3535V41.8916C419.787 41.8916 419.77 41.8916 419.753 41.8916C397.63 41.8916 379.695 59.8254 379.695 81.9482C379.695 81.9654 379.696 81.9829 379.696 82H40.0049C40.0049 81.9829 40.0059 81.9654 40.0059 81.9482C40.0057 59.8425 22.0993 41.9194 0 41.8916V39.3535C21.8648 39.326 39.6225 21.7818 39.9971 0H379.704Z"/>
</mask>
<path d="M379.704 0L389.703 -0.17195L389.534 -10H379.704V0ZM419.753 39.3545L419.753 49.3545H419.753L419.753 39.3545ZM419.805 39.3535H429.805V29.3336L419.785 29.3535L419.805 39.3535ZM419.805 41.8916L419.792 51.8916L429.805 51.9043V41.8916H419.805ZM419.753 41.8916V31.8916V41.8916ZM379.695 81.9482L369.695 81.9482V81.9482H379.695ZM379.696 82V92H389.709L389.696 81.9874L379.696 82ZM40.0049 82L30.0049 81.9874L29.9923 92H40.0049V82ZM40.0059 81.9482H50.0059V81.9482L40.0059 81.9482ZM0 41.8916H-10V51.879L-0.0125665 51.8916L0 41.8916ZM0 39.3535L-0.0125669 29.3535L-10 29.3661V39.3535H0ZM39.9971 0V-10H30.1676L29.9985 -0.17195L39.9971 0ZM379.704 0L369.706 0.17195C370.174 27.4157 392.399 49.3543 419.753 49.3545L419.753 39.3545L419.753 29.3545C403.331 29.3544 389.984 16.1819 389.703 -0.17195L379.704 0ZM419.753 39.3545L419.753 49.3545C419.847 49.3545 419.924 49.3532 419.972 49.3522C419.996 49.3517 420.017 49.3512 420.03 49.3509C420.043 49.3505 420.054 49.3502 420.056 49.3502C420.06 49.3501 420.055 49.3502 420.048 49.3504C420.041 49.3506 420.026 49.351 420.008 49.3514C419.971 49.3521 419.906 49.3533 419.825 49.3535L419.805 39.3535L419.785 29.3535C419.739 29.3536 419.698 29.354 419.663 29.3545C419.629 29.3549 419.599 29.3555 419.576 29.356C419.553 29.3565 419.534 29.357 419.522 29.3573C419.516 29.3575 419.511 29.3576 419.508 29.3577C419.505 29.3578 419.502 29.3578 419.502 29.3579C419.499 29.3579 419.506 29.3577 419.514 29.3575C419.524 29.3573 419.54 29.3569 419.56 29.3565C419.58 29.356 419.607 29.3556 419.639 29.3552C419.671 29.3548 419.709 29.3545 419.753 29.3545L419.753 39.3545ZM419.805 39.3535H409.805V41.8916H419.805H429.805V39.3535H419.805ZM419.805 41.8916L419.817 31.8916C419.801 31.8916 419.786 31.8916 419.776 31.8916C419.763 31.8916 419.76 31.8916 419.753 31.8916V41.8916V51.8916C419.788 51.8916 419.782 51.8916 419.792 51.8916L419.805 41.8916ZM419.753 41.8916V31.8916C392.107 31.8916 369.696 54.3023 369.695 81.9482L379.695 81.9482L389.695 81.9483C389.695 65.3485 403.153 51.8916 419.753 51.8916V41.8916ZM379.695 81.9482H369.695C369.695 82.0432 369.697 82.1208 369.698 82.1693C369.698 82.1941 369.699 82.2146 369.699 82.2281C369.699 82.2407 369.7 82.2516 369.7 82.253C369.7 82.2572 369.7 82.2512 369.699 82.2442C369.699 82.2361 369.699 82.2209 369.698 82.2015C369.698 82.1638 369.696 82.0968 369.696 82.0126L379.696 82L389.696 81.9874C389.696 81.9402 389.696 81.8981 389.695 81.8626C389.695 81.8272 389.694 81.7966 389.694 81.7727C389.693 81.749 389.693 81.7294 389.693 81.717C389.692 81.7107 389.692 81.7054 389.692 81.7019C389.692 81.6987 389.692 81.6956 389.692 81.6952C389.692 81.6923 389.692 81.6989 389.692 81.7072C389.692 81.7163 389.693 81.7325 389.693 81.753C389.694 81.7737 389.694 81.801 389.695 81.8332C389.695 81.8654 389.695 81.9042 389.695 81.9482H379.695ZM379.696 82V72H40.0049V82V92H379.696V82ZM40.0049 82L50.0049 82.0126C50.0048 82.0968 50.0036 82.1638 50.0027 82.2015C50.0023 82.2209 50.0019 82.2361 50.0017 82.2442C50.0015 82.2512 50.0014 82.2572 50.0015 82.253C50.0015 82.2516 50.0018 82.2407 50.0022 82.2281C50.0025 82.2146 50.003 82.1941 50.0035 82.1693C50.0046 82.1208 50.0059 82.0432 50.0059 81.9482H40.0059H30.0059C30.0059 81.9042 30.0062 81.8654 30.0066 81.8332C30.0069 81.801 30.0074 81.7737 30.0079 81.753C30.0083 81.7325 30.0087 81.7163 30.0089 81.7072C30.0092 81.6989 30.0093 81.6923 30.0093 81.6952C30.0093 81.6956 30.0092 81.6987 30.0091 81.7019C30.009 81.7054 30.0088 81.7107 30.0087 81.717C30.0083 81.7294 30.0079 81.749 30.0073 81.7727C30.0068 81.7966 30.0063 81.8272 30.0058 81.8626C30.0053 81.8981 30.0049 81.9402 30.0049 81.9874L40.0049 82ZM40.0059 81.9482L50.0059 81.9482C50.0056 54.3237 27.629 31.9263 0.0125665 31.8916L0 41.8916L-0.0125665 51.8916C16.5696 51.9124 30.0057 65.3613 30.0059 81.9483L40.0059 81.9482ZM0 41.8916H10V39.3535H0H-10V41.8916H0ZM0 39.3535L0.0125669 49.3535C27.3375 49.3192 49.5274 27.3947 49.9956 0.17195L39.9971 0L29.9985 -0.17195C29.7175 16.169 16.3921 29.3329 -0.0125669 29.3535L0 39.3535ZM39.9971 0V10H379.704V0V-10H39.9971V0Z" fill="black" mask="url(#path-12-inside-2_530_564)"/>
<mask id="path-14-inside-3_530_564" fill="white">
<path d="M379.705 0C380.08 21.7989 397.865 39.3545 419.753 39.3545C419.77 39.3545 419.787 39.3535 419.805 39.3535V41C419.787 41 419.77 41 419.753 41C397.63 41 379.695 58.9346 379.695 81.0576C379.695 81.3726 379.701 81.6867 379.708 82H40.8848C40.892 81.6867 40.8975 81.3726 40.8975 81.0576C40.8975 58.9346 22.9629 41 0.839844 41C0.559205 41 0.279263 41.004 0 41.0098V39.3438C0.279272 39.3495 0.559196 39.3545 0.839844 39.3545C22.7282 39.3545 40.5128 21.7989 40.8877 0H379.705Z"/>
</mask>
<path d="M379.705 0L381.705 -0.0343906L381.671 -2H379.705V0ZM419.753 39.3545V41.3545V39.3545ZM419.805 39.3535H421.805V37.351L419.802 37.3535L419.805 39.3535ZM419.805 41L419.802 43L421.805 43.0025V41H419.805ZM419.753 41V39V41ZM379.695 81.0576H377.695V81.0576L379.695 81.0576ZM379.708 82V84H381.755L381.707 81.9538L379.708 82ZM40.8848 82L38.8853 81.9538L38.838 84H40.8848V82ZM40.8975 81.0576L42.8975 81.0576V81.0576H40.8975ZM0.839844 41V39H0.83984L0.839844 41ZM0 41.0098H-2V43.0513L0.0411311 43.0093L0 41.0098ZM0 39.3438L0.0411298 37.3442L-2 37.3022V39.3438H0ZM0.839844 39.3545L0.839842 41.3545H0.839844V39.3545ZM40.8877 0V-2H38.9218L38.888 -0.0343906L40.8877 0ZM379.705 0L377.705 0.0343906C378.099 22.9222 396.771 41.3545 419.753 41.3545V39.3545V37.3545C398.958 37.3545 382.061 20.6756 381.705 -0.0343906L379.705 0ZM419.753 39.3545V41.3545C419.775 41.3545 419.794 41.3542 419.808 41.3539C419.82 41.3536 419.831 41.3533 419.835 41.3532C419.84 41.3531 419.838 41.3531 419.835 41.3532C419.83 41.3533 419.821 41.3535 419.807 41.3535L419.805 39.3535L419.802 37.3535C419.78 37.3535 419.762 37.3539 419.749 37.3541C419.737 37.3544 419.726 37.3547 419.723 37.3548C419.718 37.3549 419.72 37.3549 419.724 37.3548C419.729 37.3547 419.739 37.3545 419.753 37.3545V39.3545ZM419.805 39.3535H417.805V41H419.805H421.805V39.3535H419.805ZM419.805 41L419.807 39C419.788 39 419.767 39 419.753 39V41V43C419.774 43 419.786 43 419.802 43L419.805 41ZM419.753 41V39C396.525 39 377.695 57.83 377.695 81.0576H379.695H381.695C381.695 60.0392 398.734 43 419.753 43V41ZM379.695 81.0576L377.695 81.0576C377.695 81.3948 377.701 81.7262 377.709 82.0462L379.708 82L381.707 81.9538C381.7 81.6473 381.695 81.3505 381.695 81.0576L379.695 81.0576ZM379.708 82V80H40.8848V82V84H379.708V82ZM40.8848 82L42.8842 82.0462C42.8916 81.7262 42.8975 81.3948 42.8975 81.0576L40.8975 81.0576L38.8975 81.0576C38.8975 81.3505 38.8924 81.6472 38.8853 81.9538L40.8848 82ZM40.8975 81.0576H42.8975C42.8975 57.83 24.0674 39 0.839844 39V41V43C21.8583 43 38.8975 60.0392 38.8975 81.0576H40.8975ZM0.839844 41L0.83984 39C0.540619 39 0.245904 39.0043 -0.0411311 39.0102L0 41.0098L0.0411311 43.0093C0.312622 43.0038 0.57779 43 0.839848 43L0.839844 41ZM0 41.0098H2V39.3438H0H-2V41.0098H0ZM0 39.3438L-0.0411298 41.3433C0.239948 41.3491 0.53727 41.3545 0.839842 41.3545L0.839844 39.3545L0.839845 37.3545C0.581122 37.3545 0.318595 37.3499 0.0411298 37.3442L0 39.3438ZM0.839844 39.3545V41.3545C23.8215 41.3545 42.4938 22.9222 42.8874 0.0343906L40.8877 0L38.888 -0.0343906C38.5318 20.6756 21.635 37.3545 0.839844 37.3545V39.3545ZM40.8877 0V2H379.705V0V-2H40.8877V0Z" fill="#E6AA27" mask="url(#path-14-inside-3_530_564)"/>
<path d="M247.834 39.7713L257 51.9997H235L244.167 39.7713V29.9997H247.834M253.26 26.333H238.74C237.97 26.333 237.549 27.213 238.025 27.818L240.5 30.9163V38.5613L229.867 52.733C228.969 53.943 229.83 55.6663 231.334 55.6663H260.667C262.17 55.6663 263.032 53.943 262.134 52.733L251.5 38.5613V30.9163L253.975 27.818C254.452 27.213 254.03 26.333 253.26 26.333Z" fill="black"/>
</svg>
