<svg width="71" height="82" viewBox="0 0 71 82" fill="none" xmlns="http://www.w3.org/2000/svg">
<mask id="mask0_530_533" style="mask-type:alpha" maskUnits="userSpaceOnUse" x="0" y="-48" width="71" height="178">
<path d="M49.3359 -48C56.8367 -48 63.9424 -46.3099 70.2949 -43.292C53.7733 -35.4431 42.3497 -18.6046 42.3496 0.90332C42.3496 17.2722 50.3935 31.7612 62.7422 40.6377C50.3935 49.5142 42.3496 64.0032 42.3496 80.3721C42.3497 99.8799 53.7735 116.717 70.2949 124.566C63.9423 127.584 56.8368 129.275 49.3359 129.275C22.3275 129.275 0.432757 107.381 0.432617 80.3721C0.432617 64.0031 8.47636 49.5142 20.8252 40.6377C8.47636 31.7612 0.432632 17.2723 0.432617 0.90332C0.432733 -26.1052 22.3274 -47.9998 49.3359 -48Z" fill="#D9D9D9"/>
</mask>
<g mask="url(#mask0_530_533)">
<rect x="-16.1592" y="10.5098" width="86.4545" height="61.1295" fill="#E6AA27"/>
</g>
</svg>
