<svg width="71" height="82" viewBox="0 0 71 82" fill="none" xmlns="http://www.w3.org/2000/svg">
<mask id="mask0_530_524" style="mask-type:alpha" maskUnits="userSpaceOnUse" x="0" y="-48" width="71" height="178">
<path d="M49.6885 -48C57.1892 -48 64.2949 -46.3099 70.6475 -43.292C54.1258 -35.4431 42.7022 -18.6046 42.7021 0.90332C42.7022 17.2722 50.746 31.7612 63.0947 40.6377C50.746 49.5142 42.7021 64.0032 42.7021 80.3721C42.7023 99.8799 54.126 116.717 70.6475 124.566C64.2948 127.584 57.1894 129.275 49.6885 129.275C22.68 129.275 0.785296 107.381 0.785156 80.3721C0.785156 64.0031 8.82889 49.5142 21.1777 40.6377C8.8289 31.7612 0.785171 17.2723 0.785156 0.90332C0.785272 -26.1052 22.68 -47.9998 49.6885 -48Z" fill="#D9D9D9" fill-opacity="0.68"/>
</mask>
<g mask="url(#mask0_530_524)">
<rect x="-15.8076" y="10.5098" width="86.4545" height="61.1295" fill="#FFE69B"/>
</g>
</svg>
